HIERARCHY
ROOT Hips
{
	OFFSET 44.923901 0.247888 85.397903
	CHANNELS 6 Xposition Yposition Zposition Xrotation Yrotation Zrotation
	JOINT spine
	{
		OFFSET 0.000000 -0.367607 6.392601
		CHANNELS 3 Xrotation Yrotation Zrotation
		JOINT spine1
		{
			OFFSET 0.000000 -0.000001 9.176109
			CHANNELS 3 Xrotation Yrotation Zrotation
			JOINT spine2
			{
				OFFSET 0.000000 -0.000001 8.792381
				CHANNELS 3 Xrotation Yrotation Zrotation
				JOINT Neck
				{
					OFFSET 0.000000 -1.076244 22.573708
					CHANNELS 3 Xrotation Yrotation Zrotation
					JOINT Head
					{
						OFFSET 0.000000 -0.000001 6.820114
						CHANNELS 3 Xrotation Yrotation Zrotation
						End Site
						{
							OFFSET 0.000000 5.444268 16.508499
						}
					}
				}
				JOINT RightShoulder
				{
					OFFSET -3.702209 0.515506 9.495087
					CHANNELS 3 Xrotation Yrotation Zrotation
					JOINT RightArm
					{
						OFFSET 0.000000 -0.000002 12.453697
						CHANNELS 3 Xrotation Yrotation Zrotation
						JOINT RightArmRoll
						{
							OFFSET 0.000000 -0.000001 6.286865
							CHANNELS 3 Xrotation Yrotation Zrotation
							JOINT RightForeArm
							{
								OFFSET 0.000000 -0.000003 18.311401
								CHANNELS 3 Xrotation Yrotation Zrotation
								JOINT RightForeArmRoll
								{
									OFFSET 0.000000 -0.000001 7.054825
									CHANNELS 3 Xrotation Yrotation Zrotation
									JOINT RightHand
									{
										OFFSET 0.000000 -0.000002 14.157501
										CHANNELS 3 Xrotation Yrotation Zrotation
										End Site
										{
											OFFSET 0.000000 -0.000000 0.100006
										}
									}
								}
							}
						}
					}
				}
				JOINT LeftShoulder
				{
					OFFSET 3.702209 0.515506 9.495087
					CHANNELS 3 Xrotation Yrotation Zrotation
					JOINT LeftArm
					{
						OFFSET 0.000000 -0.000002 12.453697
						CHANNELS 3 Xrotation Yrotation Zrotation
						JOINT LeftArmRoll
						{
							OFFSET 0.000000 -0.000001 6.286865
							CHANNELS 3 Xrotation Yrotation Zrotation
							JOINT LeftForeArm
							{
								OFFSET 0.000000 -0.000003 18.311401
								CHANNELS 3 Xrotation Yrotation Zrotation
								JOINT LeftForeArmRoll
								{
									OFFSET 0.000000 -0.000001 7.054825
									CHANNELS 3 Xrotation Yrotation Zrotation
									JOINT LeftHand
									{
										OFFSET 0.000000 -0.000002 14.157501
										CHANNELS 3 Xrotation Yrotation Zrotation
										End Site
										{
											OFFSET 0.000000 -0.000000 0.100006
										}
									}
								}
							}
						}
					}
				}
			}
		}
	}
	JOINT RightUpLeg
	{
		OFFSET -5.666161 0.871610 -1.039032
		CHANNELS 3 Xrotation Yrotation Zrotation
		JOINT RightUpLegRoll
		{
			OFFSET 0.000000 -0.000003 16.600502
			CHANNELS 3 Xrotation Yrotation Zrotation
			JOINT RightLeg
			{
				OFFSET 0.000000 0.000003 -20.557198
				CHANNELS 3 Xrotation Yrotation Zrotation
				JOINT RightLegRoll
				{
					OFFSET 0.000000 -0.000003 20.624397
					CHANNELS 3 Xrotation Yrotation Zrotation
					JOINT RightFoot
					{
						OFFSET 0.000000 -0.000003 17.166405
						CHANNELS 3 Xrotation Yrotation Zrotation
						JOINT RightToeBase
						{
							OFFSET 0.000000 -0.000002 14.350204
							CHANNELS 3 Xrotation Yrotation Zrotation
							End Site
							{
								OFFSET 0.006081 0.801059 6.949707
							}
						}
					}
				}
			}
		}
	}
	JOINT LeftUpLeg
	{
		OFFSET 5.666161 0.871610 -1.039032
		CHANNELS 3 Xrotation Yrotation Zrotation
		JOINT LeftUpLegRoll
		{
			OFFSET 0.000000 -0.000003 16.600601
			CHANNELS 3 Xrotation Yrotation Zrotation
			JOINT LeftLeg
			{
				OFFSET 0.000000 -0.000003 20.557098
				CHANNELS 3 Xrotation Yrotation Zrotation
				JOINT LeftLegRoll
				{
					OFFSET 0.000000 -0.000003 20.815094
					CHANNELS 3 Xrotation Yrotation Zrotation
					JOINT LeftFoot
					{
						OFFSET 0.000000 -0.000003 16.975708
						CHANNELS 3 Xrotation Yrotation Zrotation
						JOINT LeftToeBase
						{
							OFFSET 0.000000 -0.000002 14.350204
							CHANNELS 3 Xrotation Yrotation Zrotation
							End Site
							{
								OFFSET -0.027260 0.801060 6.949707
							}
						}
					}
				}
			}
		}
	}
}
MOTION
Frames: 6
Frame Time: 0.041667
52.701298 -1.643384 84.621590 3.134826 2.657281 50.543127 -2.441856 0.428604 0.608439 -0.885459 0.837377 1.231121 0.759534 0.852063 1.221013 -4.233931 8.279745 13.493907 10.568810 -0.499651 11.640225 -21.034621 -13.851811 -25.940654 -119.095113 -139.305055 13.118633 0.000000 0.000014 -0.000008 120.714168 -23.425882 60.452795 -0.000001 0.000001 -2.999999 -5.000207 -7.998732 0.000168 -30.855444 42.475963 38.042057 -77.200030 117.280167 66.485990 -0.000002 -0.000026 0.000006 12.558270 4.784132 0.149810 0.000001 0.000023 3.004531 -5.000189 7.998712 -0.000155 1.724576 -175.367088 1.769146 -179.999991 0.000005 -1.232994 161.347510 -1.823962 -0.822568 0.000004 0.000004 0.878936 76.888942 6.509983 2.687208 34.172318 -6.831418 4.002838 -16.712064 175.282066 3.488894 -0.000004 -0.000004 -0.631527 -10.629737 1.142626 0.872066 -0.000003 0.000002 0.061031 66.770550 -4.714842 -7.597207 25.458977 7.355620 -0.006090 
52.697998 -1.635322 84.625397 3.161817 2.676380 50.708817 -2.446556 0.419543 0.613799 -0.894783 0.819012 1.241544 0.750204 0.833824 1.231660 -4.215371 9.037378 13.478915 10.464580 -1.163371 11.554156 -20.498668 -13.603629 -25.087860 -118.909263 -139.245100 14.301258 0.000003 0.000015 -0.000007 122.306708 -23.546582 62.200074 0.000003 -0.000001 -2.999999 -5.000195 -7.998734 0.000169 -31.222239 42.766523 38.491128 -77.683628 117.468735 67.014667 -0.000004 -0.000029 0.000006 12.579502 4.824716 0.147082 -0.000004 0.000024 3.004531 -5.000190 7.998715 -0.000155 1.686730 -175.330027 1.813495 -179.999991 0.000005 -1.232996 161.272405 -1.865775 -0.833387 0.000003 0.000005 0.877186 76.855631 6.510073 2.691437 34.314423 -6.825717 3.992824 -16.761033 175.343633 3.518665 -0.000003 -0.000004 -0.631915 -10.639058 1.147711 0.870363 -0.000004 0.000002 0.057613 66.789947 -4.725932 -7.571554 25.458979 7.355620 -0.006090 
52.738197 -1.628051 84.627701 3.179456 2.685321 50.875190 -2.447182 0.409890 0.619907 -0.895936 0.799465 1.253385 0.749044 0.814421 1.243745 -4.211582 9.790242 13.460506 10.374846 -1.829158 11.464126 -19.963221 -13.346542 -24.227909 -118.675261 -139.316379 15.228624 -0.000002 0.000016 -0.000006 123.815852 -23.497434 63.671597 0.000001 -0.000000 -3.000002 -5.000202 -7.998733 0.000168 -31.581091 43.056782 38.929070 -78.143750 117.663997 67.525818 -0.000001 -0.000029 0.000007 12.607395 4.866403 0.144062 -0.000000 0.000024 3.004529 -5.000191 7.998715 -0.000152 1.664711 -175.293977 1.860204 -179.999991 0.000005 -1.232994 161.200797 -1.906642 -0.843891 0.000007 0.000003 0.875279 76.820340 6.510167 2.695382 34.455825 -6.820043 3.983391 -16.795563 175.404831 3.545967 -0.000004 -0.000004 -0.632488 -10.648179 1.152452 0.868626 -0.000004 0.000002 0.054116 66.810376 -4.737499 -7.544752 25.458977 7.355623 -0.006090 
52.781498 -1.635581 84.632301 3.185939 2.682619 51.042632 -2.443030 0.399520 0.626976 -0.887538 0.778491 1.267082 0.757435 0.793613 1.257689 -4.225848 10.536319 13.438496 10.302390 -2.496849 11.370108 -19.431388 -13.081360 -23.363056 -118.386918 -139.543333 15.861309 0.000002 0.000016 -0.000006 125.200564 -23.280328 64.824854 0.000001 -0.000000 -3.000000 -5.000200 -7.998731 0.000170 -31.929867 43.346638 39.353293 -78.577303 117.865965 68.017052 -0.000002 -0.000028 0.000005 12.643750 4.909262 0.140658 -0.000005 0.000023 3.004533 -5.000188 7.998712 -0.000154 1.661888 -175.257982 1.909241 -179.999991 0.000005 -1.232991 161.134189 -1.948471 -0.854656 0.000005 0.000004 0.873158 76.782261 6.510256 2.699286 34.596926 -6.814377 3.974671 -16.813590 175.464636 3.570456 -0.000006 -0.000004 -0.633268 -10.656996 1.156685 0.866830 -0.000004 0.000002 0.050530 66.832008 -4.749419 -7.517164 25.458973 7.355618 -0.006090 
52.809399 -1.627231 84.622589 3.179468 2.666752 51.211819 -2.433414 0.388313 0.635224 -0.868207 0.755848 1.283055 0.776759 0.771162 1.273937 -4.261495 11.273646 13.412786 10.249617 -3.166280 11.272024 -18.906240 -12.808953 -22.495356 -118.035969 -139.945112 16.157156 0.000000 0.000014 -0.000009 126.426583 -22.900332 65.620797 -0.000002 0.000001 -3.000001 -5.000201 -7.998731 0.000171 -32.266241 43.635647 39.760775 -78.981507 118.074696 68.486382 -0.000003 -0.000027 0.000004 12.690886 4.953330 0.136726 -0.000007 0.000024 3.004531 -5.000189 7.998713 -0.000155 1.681619 -175.224050 1.960509 -179.999991 0.000005 -1.234004 161.073756 -1.989395 -0.864974 0.000003 0.000005 0.870772 76.740618 6.510334 2.703296 34.738223 -6.808639 3.966740 -16.812579 175.523991 3.591184 -0.000005 -0.000004 -0.634255 -10.665410 1.160250 0.864988 -0.000004 0.000002 0.046848 66.854636 -4.761733 -7.488718 25.458979 7.355619 -0.006089 
52.832298 -1.639281 84.625999 3.158278 2.636193 51.383202 -2.417652 0.376147 0.644867 -0.836559 0.731299 1.301742 0.808397 0.746838 1.292911 -4.321911 12.000171 13.383731 10.219459 -3.837322 11.170040 -18.390655 -12.530470 -21.626689 -117.611623 -140.533178 16.075837 0.000002 0.000014 -0.000006 127.468228 -22.364561 66.020841 -0.000000 0.000001 -3.000003 -5.000203 -7.998730 0.000171 -32.588096 43.923779 40.148791 -79.353384 118.290352 68.931512 -0.000002 -0.000028 0.000006 12.750613 4.998674 0.132163 -0.000005 0.000026 3.004526 -5.000190 7.998716 -0.000156 1.727265 -175.193191 2.013920 -179.999991 0.000005 -1.235005 161.020917 -2.030379 -0.875112 0.000003 0.000005 0.868087 76.694562 6.510454 2.707167 34.879819 -6.802828 3.959679 -16.790398 175.579985 3.608390 -0.000004 -0.000004 -0.635486 -10.673423 1.162971 0.863072 -0.000004 0.000002 0.043066 66.878460 -4.774366 -7.459573 25.458977 7.355623 -0.006091 
